<?xml version="1.0" encoding="UTF-8"?>
<svg id="Circular" xmlns="http://www.w3.org/2000/svg" version="1.1" viewBox="0 0 50 50">
  <defs>
    <style>
      .cls-1 {
        fill: #fff;
        stroke-width: 0px;
      }
    </style>
  </defs>
  <path class="cls-1" d="M25,0C11.2,0,0,11.2,0,25s11.2,25,25,25,25-11.2,25-25S38.8,0,25,0ZM40,34.3c0,.4-.3.8-.8.8H10.8c-.4,0-.8-.3-.8-.8V15.7c0-.4.4-.8.8-.8h28.5c.4,0,.8.4.8.8v18.6h0Z"/>
  <path class="cls-1" d="M25,28.9c-.2,0-.4,0-.5-.2l-12.9-11.3v16.1h26.9v-16.1l-13,11.3c-.1.1-.3.2-.5.2Z"/>
  <path class="cls-1" d="M37.2,16.5H12.8l12.2,10.6,12.2-10.6Z"/>
</svg>