<?xml version="1.0" encoding="UTF-8"?>
<svg id="Calque_1" data-name="Calque 1" xmlns="http://www.w3.org/2000/svg" version="1.1" viewBox="0 0 512 512">
  <defs>
    <style>
      .cls-1 {
        fill: #fff;
        stroke-width: 0px;
      }
    </style>
  </defs>
  <g id="Layer_2" data-name="Layer 2">
    <g id="Color">
      <path id="_10.Linkedin" data-name=" 10.Linkedin" class="cls-1" d="M256,0C114.6,0,0,114.6,0,256s114.6,256,256,256,256-114.6,256-256S397.4,0,256,0ZM181.6,390.7h-55.8v-179.9h55.8v179.9ZM153.6,186.3c-18,0-32.6-14.4-32.6-32.4s14.4-32.6,32.4-32.6c17.9,0,32.5,14.4,32.6,32.3,0,17.9-14.4,32.5-32.4,32.7ZM390.7,390.7h-55.8v-87.6c0-20.9-.4-47.7-29-47.7s-33.7,22.7-33.7,46.1v89.1h-55.6v-179.9h53.6v24.5h.8c7.4-14.1,25.7-29.1,52.9-29.1,56.5,0,66.9,37.3,66.9,85.6v98.8Z"/>
    </g>
  </g>
</svg>